<svg id="Layer_1" data-name="Layer 1" xmlns="http://www.w3.org/2000/svg" width="0.4in" height="0.4in" viewBox="0 0 27.8 29"><title>sfae</title><path d="M11.3,3.6A20.9,20.9,0,0,1,3.1,5.8v7.7a6.5,6.5,0,0,0,.5,2.7c.9,2.3,3.1,6.5,7.7,8,0,0,8.3-2.9,8.1-10.3v-8A13.9,13.9,0,0,1,11.3,3.6Z" fill="none" stroke="#738461" stroke-miterlimit="10"/><path d="M.5,3A26.3,26.3,0,0,0,11.2.6,33.6,33.6,0,0,0,22,3V17.6A21.6,21.6,0,0,1,11.2,28.5a19.6,19.6,0,0,1-9.8-9.4,8.5,8.5,0,0,1-.9-3.8Z" fill="none" stroke="#738461" stroke-miterlimit="10"/><circle cx="20.7" cy="18" r="6.6" fill="#fff" stroke="#738461" stroke-miterlimit="10"/><polyline points="17.3 18 19.4 20.2 24 15.3" fill="none" stroke="#738461" stroke-miterlimit="10"/></svg>