<svg id="Layer_1" data-name="Layer 1" xmlns="http://www.w3.org/2000/svg" width="0.3in" height="0.4in" viewBox="0 0 23.3 29"><title>thumb</title><rect y="14.5" width="4.9" height="13.75" rx="0.9" ry="0.9" fill="#738461"/><path d="M4.5,15.3s4.5.8,5.6-2.2V7s1.6-3.2,4.2,1.1v5.4h6.2a2.8,2.8,0,0,1,2.8,2.8c0,2.7-1.6,9-1.6,9s-.5,3.3-3.1,2.9H9.5s-3.6-.4-4.8-2Z" fill="#738461"/><line x1="2.4" y1="8.9" x2="5.6" y2="8.9" fill="none" stroke="#738461" stroke-linecap="round" stroke-linejoin="round"/><line x1="4.9" y1="2.6" x2="7.3" y2="4.8" fill="none" stroke="#738461" stroke-linecap="round" stroke-linejoin="round"/><line x1="11.5" x2="11.5" y2="3.3" fill="none" stroke="#738461" stroke-linecap="round" stroke-linejoin="round"/><line x1="17.9" y1="2.6" x2="15.7" y2="4.8" fill="none" stroke="#738461" stroke-linecap="round" stroke-linejoin="round"/><line x1="20.7" y1="8.9" x2="17.4" y2="8.9" fill="none" stroke="#738461" stroke-linecap="round" stroke-linejoin="round"/></svg>