<svg id="Layer_1" data-name="Layer 1" xmlns="http://www.w3.org/2000/svg" width="0.4in" height="0.4in" viewBox="0 0 30.2 29.9"><title>world</title><circle cx="14.6" cy="15.2" r="11.7" fill="none" stroke="#738461" stroke-miterlimit="10"/><line x1="14.6" y1="3.5" x2="14.6" y2="26.8" fill="none" stroke="#738461" stroke-miterlimit="10"/><line x1="2.9" y1="15.2" x2="26.3" y2="15.2" fill="none" stroke="#738461" stroke-miterlimit="10"/><path d="M.6,11.1s5-17.2,22.9-7.8" fill="none" stroke="#738461" stroke-miterlimit="10"/><polyline points="22.9 4.3 24.6 3.6 24 2" fill="none" stroke="#738461" stroke-miterlimit="10"/><path d="M29.3,19.2S23.6,35.2,6.4,27" fill="none" stroke="#738461" stroke-miterlimit="10"/><polyline points="7.2 26.1 5.6 26.7 6.2 28.3" fill="none" stroke="#738461" stroke-miterlimit="10"/><path d="M.6,15.5a8.5,8.5,0,0,0,1.9,6.8" fill="none" stroke="#738461" stroke-miterlimit="10"/><path d="M28.1,8.6a8.3,8.3,0,0,1,1.3,7" fill="none" stroke="#738461" stroke-miterlimit="10"/><path d="M19.4,4.6a30.5,30.5,0,0,1,0,21.2" fill="none" stroke="#738461" stroke-miterlimit="10"/><path d="M4.1,10.5a31.5,31.5,0,0,1,21.3,0" fill="none" stroke="#738461" stroke-miterlimit="10"/><path d="M25.2,19.1A31.2,31.2,0,0,1,4,19.1" fill="none" stroke="#738461" stroke-miterlimit="10"/><path d="M10.1,4.6a31.1,31.1,0,0,0,0,21.2" fill="none" stroke="#738461" stroke-miterlimit="10"/></svg>